<?xml version="1.0" encoding="UTF-8"?> <svg xmlns="http://www.w3.org/2000/svg" width="90" height="27" viewBox="0 0 90 27" fill="none"><g id="Group 85"><path id="Vector" d="M41.5557 18.448C41.5557 18.6572 41.5557 18.7954 41.5557 18.9335C41.5557 21.4547 41.5488 23.9759 41.5633 26.4963C41.5655 26.8746 41.4804 27.0143 41.0813 26.9989C40.2367 26.9665 39.3899 26.9888 38.5156 26.9888V6.3415C38.8813 6.3415 39.2431 6.3415 39.605 6.3415C40.1371 6.3415 40.6693 6.35231 41.2006 6.33764C41.4622 6.3307 41.564 6.42179 41.5579 6.6912C41.545 7.28097 41.5541 7.87228 41.5541 8.47903C41.9312 8.10927 42.2687 7.73178 42.6526 7.41143C43.9815 6.30059 45.5155 5.93391 47.2191 6.0883C50.2941 6.36775 52.5869 8.86269 53.0552 11.9628C53.3988 14.2355 53.0757 16.3653 51.7256 18.255C50.6545 19.7549 49.1843 20.5932 47.3651 20.8225C45.4806 21.0595 43.8059 20.611 42.3782 19.318C42.106 19.0717 41.8696 18.7838 41.5541 18.448H41.5557ZM46.725 17.9825C47.635 17.9493 48.963 17.1758 49.6959 15.493C50.0539 14.6716 50.1398 13.807 50.0646 12.9038C49.8373 10.175 47.4563 8.42114 44.8306 9.04178C42.4694 9.5999 41.2691 11.8864 41.5435 14.1274C41.8187 16.3792 43.6234 18.0365 46.725 17.9833V17.9825Z" fill="#4836E7"></path><path id="Vector_2" d="M35.4988 10.4475C34.4938 10.4475 33.5466 10.4506 32.5994 10.4413C32.531 10.4413 32.4291 10.3665 32.4002 10.3001C31.9813 9.35212 31.1877 8.95688 30.2443 8.80944C29.1982 8.64579 28.156 8.65505 27.1556 9.06727C26.9488 9.15218 26.7451 9.27647 26.5794 9.427C25.9203 10.0283 26.0305 10.8258 26.8409 11.1747C27.3259 11.3831 27.8421 11.5221 28.3521 11.6641C29.9554 12.1103 31.5731 12.5086 33.1634 12.9957C34.0057 13.2543 34.7614 13.7252 35.2441 14.5234C36.2179 16.1345 35.6561 18.4812 34.0263 19.6445C32.9833 20.3887 31.8027 20.6967 30.5506 20.8264C29.0561 20.9815 27.5965 20.8619 26.1848 20.3431C24.222 19.6221 22.8848 18.2952 22.4066 16.1762C22.3983 16.1391 22.3922 16.1005 22.3907 16.0627C22.3899 16.038 22.3998 16.0133 22.415 15.9392C22.5465 15.9314 22.6909 15.9152 22.8361 15.9145C23.6085 15.9122 24.3816 15.9052 25.154 15.9214C25.2779 15.9237 25.4809 16.0048 25.5105 16.0943C25.9332 17.4074 26.9359 17.9323 28.1705 18.123C29.2134 18.2836 30.2618 18.2913 31.2858 17.9848C31.5594 17.903 31.8339 17.771 32.0642 17.6012C32.8016 17.0562 32.7431 16.0503 31.9084 15.6659C31.2728 15.3726 30.5765 15.1989 29.8938 15.0283C28.2898 14.6284 26.6637 14.308 25.1471 13.6125C24.1749 13.1663 23.3721 12.5295 23.1547 11.4001C22.8187 9.65009 23.5051 7.96801 25.0802 7.03009C26.07 6.44032 27.1503 6.19639 28.286 6.08754C29.6034 5.96172 30.8874 6.07056 32.1319 6.50517C33.8393 7.10189 34.9773 8.27371 35.444 10.0716C35.4691 10.1673 35.4729 10.2677 35.4973 10.4452L35.4988 10.4475Z" fill="#4836E7"></path><path id="Vector_3" d="M81.7005 3.24902V6.34145C81.87 6.34145 82.0145 6.34145 82.1589 6.34145C84.6159 6.34145 87.0728 6.34917 89.5298 6.33296C89.8985 6.33065 90.0133 6.43949 89.9958 6.8108C89.9677 7.42682 89.9882 8.04515 89.9882 8.66271C89.9882 9.0317 89.8111 9.21671 89.4568 9.21774C87.0508 9.21774 84.644 9.21774 82.238 9.21774H81.7104C81.7104 9.40378 81.7104 9.54119 81.7104 9.67859C81.7096 11.4016 81.6838 13.1261 81.7218 14.8483C81.7347 15.4265 81.8343 16.0279 82.0244 16.5721C82.3558 17.5201 83.1145 17.9415 84.0807 17.9971C84.9671 18.0481 85.7744 17.8782 86.3431 17.1055C86.752 16.5497 86.8843 15.8967 86.9071 15.2227C86.9307 14.5419 86.9238 13.8595 86.9124 13.1778C86.9079 12.9185 86.9778 12.8112 87.2538 12.8166C88.0642 12.832 88.8745 12.8235 89.6857 12.8212C89.8499 12.8212 89.9897 12.8289 89.989 13.0566C89.9814 14.4523 90.0794 15.8565 89.6226 17.2128C88.9042 19.3457 87.437 20.5253 85.243 20.8225C84.2077 20.963 83.1943 20.8912 82.2167 20.5492C80.2318 19.8537 79.1539 18.3584 78.7928 16.3112C78.6757 15.6473 78.6514 14.9603 78.6491 14.2833C78.6354 10.7724 78.6422 7.26162 78.643 3.75002C78.643 3.2498 78.6445 3.24902 79.1463 3.24902C79.9802 3.24902 80.8141 3.24902 81.7013 3.24902H81.7005Z" fill="#4836E7"></path><path id="Vector_4" d="M9.87426 20.5801C8.89133 20.5801 7.96921 20.5855 7.04708 20.5701C6.96726 20.5686 6.8616 20.4427 6.81827 20.3501C6.77873 20.266 6.8061 20.1486 6.8061 20.0452C6.8061 15.6597 6.8061 11.2735 6.8061 6.88806C6.8061 6.5237 6.98602 6.34126 7.34584 6.34075C8.16686 6.34075 8.98787 6.34075 9.84538 6.34075V8.5354C9.96853 8.40108 10.0347 8.34087 10.0879 8.26985C11.048 6.98455 12.3039 6.25429 13.898 6.09449C15.4549 5.93779 16.8977 6.17555 18.1384 7.20687C19.0734 7.98423 19.5584 9.03176 19.7424 10.2182C19.8405 10.8482 19.8792 11.4935 19.883 12.1319C19.8982 14.7812 19.8899 17.4306 19.8891 20.0799C19.8891 20.5809 19.8876 20.5817 19.3866 20.5817C18.6644 20.5817 17.9423 20.5662 17.2208 20.5886C16.9031 20.5987 16.8156 20.496 16.8172 20.1772C16.8286 17.5796 16.8308 14.9812 16.8172 12.3836C16.8149 11.9135 16.7647 11.4348 16.6666 10.9755C16.453 9.97354 15.8471 9.3251 14.8551 9.06419C14.1177 8.87043 13.3795 8.87274 12.6437 9.04489C11.1765 9.3884 10.3448 10.3726 10.0347 11.827C9.929 12.3234 9.88491 12.8421 9.88111 13.3508C9.86514 15.5887 9.87426 17.8266 9.87426 20.0645C9.87426 20.2165 9.87426 20.3686 9.87426 20.5801Z" fill="#4836E7"></path><path id="Vector_5" d="M62.5859 20.5824C62.5859 20.3686 62.5859 20.2281 62.5859 20.0876C62.5859 15.6774 62.5859 11.2665 62.5859 6.85636C62.5859 6.51464 62.7474 6.34327 63.0702 6.34224C65.5013 6.34224 67.9324 6.34918 70.3643 6.33452C70.7201 6.3322 70.8569 6.41789 70.8402 6.80232C70.8105 7.48241 70.8189 8.16558 70.8379 8.84644C70.8463 9.14905 70.755 9.24477 70.4517 9.24168C68.983 9.22701 67.5143 9.23473 66.0448 9.23628C65.9331 9.23628 65.8221 9.24709 65.6746 9.25403C65.6663 9.43158 65.6526 9.59369 65.6526 9.7558C65.6511 13.1894 65.6518 16.6223 65.6511 20.0559C65.6511 20.4069 65.4793 20.5827 65.1356 20.5832C64.3032 20.5832 63.4716 20.5832 62.5859 20.5832V20.5824Z" fill="#4836E7"></path><path id="Vector_6" d="M56.0482 20.5802C56.0482 20.3749 56.0482 20.2352 56.0482 20.0954C56.0482 15.6722 56.0535 11.2489 56.0391 6.82638C56.0376 6.435 56.1371 6.31612 56.5241 6.3331C57.2569 6.36475 57.9928 6.35163 58.7271 6.33773C59.0077 6.33233 59.1316 6.39563 59.1308 6.71908C59.1217 11.2195 59.1247 15.72 59.1224 20.2197C59.1224 20.3764 59.1726 20.5802 58.9088 20.5802C57.9745 20.5802 57.0403 20.5802 56.0474 20.5802H56.0482Z" fill="#4836E7"></path><path id="Vector_7" d="M73.1016 6.34393C74.0617 6.34393 74.9838 6.33853 75.9067 6.35397C75.985 6.35551 76.0876 6.48906 76.1302 6.58401C76.169 6.6697 76.1416 6.78626 76.1416 6.88893C76.1416 11.2759 76.1416 15.6629 76.1416 20.0499C76.1416 20.404 75.9711 20.5813 75.63 20.5818C74.7968 20.5818 73.9629 20.5818 73.1023 20.5818V6.34393H73.1016Z" fill="#4836E7"></path><path id="Vector_8" d="M3.45489 20.5593H0.5V6.37012H3.45489V20.5593Z" fill="#4836E7"></path><path id="Vector_9" d="M1.9939 0C2.86205 0.0046317 3.54774 0.422257 3.8275 1.11856C4.10725 1.81485 3.94001 2.63389 3.41471 3.14338C2.64159 3.89294 1.18733 3.8667 0.494026 3.0739C-0.0244299 2.48182 -0.143781 1.79247 0.178543 1.07147C0.525954 0.293341 1.18657 0.0030878 1.9939 0Z" fill="#4836E7"></path><path id="Vector_10" d="M57.5937 0.00532485C58.5888 0.00532485 59.3467 0.564989 59.5086 1.41722C59.7139 2.50104 59.124 3.40036 58.0445 3.64816C56.9848 3.89132 55.9205 3.2892 55.6711 2.30574C55.3716 1.1262 56.1957 0.0323431 57.4036 0.00532485C57.4667 0.00378095 57.5306 0.00532485 57.5937 0.00532485Z" fill="#4836E7"></path><path id="Vector_11" d="M74.5983 0C75.3866 0.0108073 76.0389 0.288709 76.3977 1.0429C76.9496 2.20237 76.1453 3.57413 74.8758 3.67371C73.8997 3.75013 73.1129 3.34795 72.7852 2.60456C72.209 1.29688 73.1098 0.00231585 74.5983 0.00077195V0Z" fill="#4836E7"></path></g></svg> 